<svg width="32" height="32" viewBox="0 0 32 32" fill="none" xmlns="http://www.w3.org/2000/svg">
<path d="M16 0C15.4822 0 15.0625 0.41975 15.0625 0.9375V5.3125C15.0625 5.83025 15.4822 6.25 16 6.25C16.5178 6.25 16.9375 5.83025 16.9375 5.3125V0.9375C16.9375 0.41975 16.5178 0 16 0Z" fill="#287EFE"/>
<path d="M16 8.5625C15.4822 8.5625 15.0625 8.98225 15.0625 9.5V13.875C15.0625 14.3927 15.4822 14.8125 16 14.8125C16.5178 14.8125 16.9375 14.3927 16.9375 13.875V9.5C16.9375 8.98225 16.5178 8.5625 16 8.5625Z" fill="#287EFE"/>
<path d="M16 17.1875C15.4822 17.1875 15.0625 17.6072 15.0625 18.125V22.5C15.0625 23.0177 15.4822 23.4375 16 23.4375C16.5178 23.4375 16.9375 23.0177 16.9375 22.5V18.125C16.9375 17.6072 16.5178 17.1875 16 17.1875Z" fill="#287EFE"/>
<path d="M16 25.75C15.4822 25.75 15.0625 26.1697 15.0625 26.6875V31.0625C15.0625 31.5802 15.4822 32 16 32C16.5178 32 16.9375 31.5802 16.9375 31.0625V26.6875C16.9375 26.1697 16.5178 25.75 16 25.75Z" fill="#287EFE"/>
<path d="M11.2126 6.46896L3.71263 4.16633C3.42831 4.07896 3.11944 4.13183 2.88031 4.30858C2.64112 4.48533 2.5 4.76508 2.5 5.06252V26.9375C2.5 27.235 2.64112 27.5147 2.88031 27.6915C3.12037 27.8689 3.4295 27.9207 3.71263 27.8336L11.2126 25.531C11.6063 25.4102 11.875 25.0466 11.875 24.6348V7.36515C11.875 6.9534 11.6062 6.58983 11.2126 6.46896ZM10 23.942L4.375 25.669V6.33102L10 8.05802V23.942Z" fill="#287EFE"/>
<path d="M29.1197 4.30858C28.8805 4.13183 28.5716 4.07896 28.2874 4.16633L20.7874 6.46896C20.3937 6.58977 20.125 6.9534 20.125 7.36515V24.6349C20.125 25.0466 20.3937 25.4102 20.7874 25.5311L28.2874 27.8337C28.5727 27.9213 28.8814 27.8675 29.1197 27.6915C29.3589 27.5147 29.5 27.235 29.5 26.9375V5.06252C29.5 4.76508 29.3589 4.48533 29.1197 4.30858ZM27.625 25.669L22 23.942V8.05802L27.625 6.33102V25.669Z" fill="#287EFE"/>
</svg>
