<svg width="18" height="18" viewBox="0 0 18 18" fill="none" xmlns="http://www.w3.org/2000/svg">
<g clip-path="url(#clip0)">
<path d="M0.322401 8.62854L4.46867 10.4116L6.07166 16.3337C6.09775 16.4226 6.14128 16.5028 6.19866 16.5679C6.25603 16.6329 6.32561 16.6808 6.40167 16.7078C6.47774 16.7347 6.55811 16.7399 6.63619 16.7228C6.71426 16.7058 6.7878 16.667 6.85076 16.6097L9.16121 14.487C9.28244 14.3785 9.4302 14.3199 9.5821 14.3199C9.73401 14.3199 9.88177 14.3785 10.003 14.487L14.194 17.8939C14.2604 17.9481 14.3369 17.9826 14.4169 17.9945C14.4969 18.0063 14.5781 17.995 14.6537 17.9617C14.7293 17.9284 14.797 17.8739 14.851 17.803C14.9051 17.7321 14.9439 17.6467 14.9642 17.5542L18.0179 0.66863C18.0336 0.567966 18.0262 0.464165 17.9966 0.368014C17.967 0.271864 17.9162 0.186873 17.8494 0.121876C17.7827 0.0568793 17.7025 0.0142484 17.6172 -0.00158561C17.5318 -0.0174196 17.4445 -0.00587884 17.3642 0.0318372L0.349267 7.57783C0.254421 7.6101 0.170679 7.67725 0.11012 7.76959C0.0495618 7.86192 0.0153181 7.97467 0.0123292 8.09156C0.00934036 8.20846 0.0377609 8.32345 0.0934907 8.41997C0.149221 8.51648 0.229379 8.58951 0.322401 8.62854ZM5.81195 9.45637L13.9164 3.72523C13.9449 3.69849 13.9812 3.68627 14.0173 3.69124C14.0534 3.69622 14.0864 3.71799 14.109 3.75177C14.1315 3.78554 14.1418 3.82856 14.1377 3.87135C14.1335 3.91415 14.1151 3.95321 14.0866 3.97995L7.39703 11.1226C7.16635 11.3739 7.01475 11.7108 6.96718 12.0778L6.7433 14.0307C6.73007 14.0832 6.70289 14.1293 6.66577 14.1621C6.62866 14.1949 6.58361 14.2126 6.53733 14.2126C6.49104 14.2126 6.44599 14.1949 6.40888 14.1621C6.37177 14.1293 6.34458 14.0832 6.33136 14.0307L5.43583 10.4965C5.39385 10.2982 5.40791 10.0891 5.47585 9.90122C5.54379 9.71334 5.66186 9.55707 5.81195 9.45637Z" fill="white"/>
</g>
<defs>
<clipPath id="clip0">
<rect width="18" height="18" fill="white"/>
</clipPath>
</defs>
</svg>
