<svg width="60" height="60" viewBox="0 0 60 60" fill="none" xmlns="http://www.w3.org/2000/svg">
<path d="M43.125 18.22V21.3925C43.125 22.135 42.5225 22.74 41.78 22.74H38.6075C37.86 22.74 37.2625 22.135 37.2625 21.3925V18.22C37.2625 17.4775 37.86 16.875 38.6075 16.875H41.78C42.5225 16.875 43.125 17.4775 43.125 18.22ZM30 36.7275C33.715 36.7275 36.7325 33.715 36.7325 29.9975C36.7325 26.28 33.715 23.2725 30 23.2725C26.2825 23.2725 23.2725 26.2825 23.2725 30C23.2725 33.7175 26.2825 36.7275 30 36.7275ZM40.6525 28.5C40.7225 28.99 40.7675 29.49 40.7675 29.9975C40.7675 35.9475 35.9475 40.7675 30 40.7675C24.0525 40.7675 19.2325 35.9475 19.2325 30C19.2325 29.49 19.2775 28.9925 19.3475 28.5025C19.415 28.0175 19.5125 27.545 19.6425 27.085H16.875V41.7825C16.875 42.525 17.4775 43.1275 18.22 43.1275H41.78C42.5225 43.1275 43.125 42.525 43.125 41.7825V27.085H40.3575C40.4825 27.545 40.5825 28.0175 40.6525 28.5ZM60 30C60 46.5675 46.5675 60 30 60C13.4325 60 0 46.5675 0 30C0 13.4325 13.4325 0 30 0C46.5675 0 60 13.4325 60 30ZM47.5 16.5375C47.5 14.3075 45.6925 12.5 43.4625 12.5H16.5375C14.3075 12.5 12.5 14.3075 12.5 16.5375V43.46C12.5 45.6925 14.3075 47.5 16.5375 47.5H43.4625C45.6925 47.5 47.5 45.6925 47.5 43.46V16.5375Z" fill="#2B2B2B"/>
</svg>
