<svg width="30" height="26" viewBox="0 0 30 26" fill="none" xmlns="http://www.w3.org/2000/svg">
<path d="M19.4522 4.84044C19.4258 4.84044 19.3992 4.84147 19.3727 4.84173C17.4867 1.96685 14.2355 0.0640869 10.5477 0.0640869C4.73165 0.0640869 0 4.79574 0 10.6118C0 16.4279 4.73165 21.1595 10.5477 21.1595C10.5729 21.1595 10.598 21.1587 10.6231 21.1585C11.5127 22.5166 12.7084 23.6601 14.1106 24.4851C15.7238 25.4342 17.5709 25.9359 19.4522 25.9359C25.2683 25.9359 29.9999 21.2042 29.9999 15.3881C29.9999 9.57208 25.2683 4.84044 19.4522 4.84044ZM28.0649 15.3881C28.0649 16.6108 27.8083 17.7745 27.3469 18.8289L25.5641 17.7996C25.8599 17.0527 26.0226 16.2391 26.0226 15.3881C26.0226 14.5392 25.8596 13.7255 25.5633 12.9772L27.347 11.9473C27.8083 13.0018 28.0649 14.1655 28.0649 15.3881ZM19.4522 20.0234C18.4679 20.0234 17.5224 19.7104 16.7398 19.1452C19.2668 17.3064 20.9491 14.3744 21.0856 11.0499C22.8448 11.7137 24.0874 13.417 24.0874 15.3881C24.0874 17.944 22.0081 20.0234 19.4522 20.0234ZM1.93508 10.6118C1.93508 9.38915 2.19173 8.22546 2.65305 7.17104L4.43584 8.20037C4.14009 8.94731 3.97742 9.76095 3.97742 10.6118C3.97742 11.4627 4.14009 12.2764 4.43584 13.0233L2.65305 14.0526C2.19173 12.9982 1.93508 11.8345 1.93508 10.6118ZM5.91256 10.6118C5.91256 8.05595 7.99186 5.97665 10.5477 5.97665C13.1036 5.97665 15.1829 8.05595 15.1829 10.6118C15.1829 13.1676 13.1036 15.247 10.5477 15.247C7.99186 15.247 5.91256 13.1676 5.91256 10.6118ZM19.1604 10.6118C19.1604 11.8344 18.9037 12.9981 18.4424 14.0526L16.6596 13.0234C16.9554 12.2764 17.1181 11.4628 17.1181 10.6118C17.1181 9.76088 16.9554 8.94725 16.6596 8.20031L18.4424 7.17104C18.9037 8.22553 19.1604 9.38915 19.1604 10.6118ZM11.5152 19.1698V17.1108C13.1982 16.8613 14.6749 15.9714 15.6893 14.6976L17.4724 15.727C16.0832 17.6026 13.9514 18.8962 11.5152 19.1698ZM26.3769 10.273L24.5935 11.3026C23.6938 10.1715 22.4287 9.34033 20.9716 8.99479C20.8555 8.2432 20.6592 7.51787 20.3928 6.82711C22.8401 7.09409 24.9826 8.3904 26.3769 10.273ZM17.4724 5.49668L15.6893 6.52614C14.675 5.25228 13.1982 4.36241 11.5153 4.11298V2.0538C13.9514 2.32742 16.0832 3.62101 17.4724 5.49668ZM9.58017 2.0538V4.11291C7.8973 4.36241 6.42051 5.25222 5.40615 6.52608L3.62298 5.49656C5.01217 3.62101 7.14404 2.32742 9.58017 2.0538ZM3.62304 15.727L5.40615 14.6976C6.42051 15.9714 7.89723 16.8613 9.58017 17.1108V19.1698C7.14404 18.8962 5.01223 17.6026 3.62304 15.727ZM12.8422 20.9075C13.5822 20.7427 14.2932 20.5 14.966 20.1883C15.9415 21.1004 17.1684 21.6909 18.4847 21.8865V23.9447C16.2854 23.6937 14.2589 22.5977 12.8422 20.9075ZM20.4198 23.9462V21.887C22.1026 21.6376 23.5794 20.7477 24.5937 19.4739L26.3769 20.5033C24.9878 22.379 22.8559 23.6725 20.4198 23.9462Z" fill="white"/>
</svg>
