<svg width="30" height="30" viewBox="0 0 30 30" fill="none" xmlns="http://www.w3.org/2000/svg">
<g clip-path="url(#clip0)">
<path d="M30 20.0166L29.9687 11.5765C29.964 10.2036 28.8294 9.06844 27.4396 9.04594C26.7538 9.03498 26.11 9.29069 25.6279 9.76659C25.1644 10.224 24.9057 10.8316 24.8966 11.4815L24.6821 13.9684C23.2695 11.1073 20.9311 8.79838 18.016 7.4253V5.26623L20.1217 0.89602H18.7236C18.6357 0.89602 18.6245 0.89602 18.4233 0.699204C18.1564 0.438286 17.71 0.00158691 16.8946 0.00158691C16.0792 0.00158691 15.6328 0.438345 15.366 0.699263C15.1648 0.896079 15.1535 0.896079 15.0657 0.896079C14.978 0.896079 14.9667 0.896079 14.7655 0.699321C14.4988 0.438403 14.0523 0.00158691 13.237 0.00158691C12.4216 0.00158691 11.9752 0.438345 11.7084 0.699321C11.5072 0.896079 11.496 0.896079 11.4082 0.896079H10.0396L12.0381 5.25739V7.42272C9.09949 8.79211 6.74092 11.1111 5.31979 13.9887L5.10352 11.4816C5.09443 10.8316 4.83574 10.2241 4.37227 9.76664C3.89016 9.29075 3.24645 9.03574 2.56061 9.046C1.17076 9.0685 0.0362109 10.2037 0.0314062 11.5763L0 20.0166L4.23187 26.7788L2.82609 29.9998H9.51914L11.1329 26.8979L11.1516 26.8482C11.1748 26.7864 11.1963 26.7242 11.2171 26.6619C12.4107 27.1355 13.6948 27.3837 14.9869 27.3837C16.2884 27.3837 17.5798 27.1325 18.78 26.6528C18.8017 26.7182 18.8242 26.7834 18.8485 26.8482L18.8672 26.8979L20.4809 29.9998H27.174L25.7682 26.7788L30 20.0166ZM13.7947 5.94399H16.2594V7.11528H13.7947V5.94399ZM12.9367 1.95499C13.1379 1.75817 13.1491 1.75817 13.2369 1.75817C13.3246 1.75817 13.3359 1.75817 13.5371 1.95493C13.8038 2.2159 14.2503 2.65266 15.0656 2.65266C15.881 2.65266 16.3275 2.21596 16.5943 1.95499C16.7955 1.75817 16.8067 1.75817 16.8946 1.75817C16.9824 1.75817 16.9937 1.75817 17.1949 1.95499C17.2822 2.04041 17.3888 2.14459 17.5212 2.2462L16.5859 4.18735H13.48L12.5957 2.25745C12.735 2.15233 12.8462 2.04352 12.9367 1.95499ZM9.52418 26.1838L8.45285 28.2431H5.50945L6.21252 26.6322L1.75852 19.5152L1.78793 11.5825C1.78939 11.1594 2.14869 10.8094 2.58896 10.8023C2.79926 10.798 2.99461 10.875 3.13822 11.0168C3.27346 11.1503 3.34764 11.3288 3.34705 11.5193L3.34693 11.5585L3.87398 17.6681C3.67693 17.9383 3.53303 18.246 3.45539 18.5736C3.30041 19.2275 3.41162 19.8971 3.76852 20.461L6.16693 24.5152L7.67883 23.6207L5.27297 19.554L5.2558 19.5263C5.15174 19.3644 5.11939 19.1699 5.16469 18.9788C5.21402 18.7705 5.34645 18.5936 5.53746 18.4806C5.8984 18.2672 6.36521 18.3614 6.58441 18.6895L9.16482 23.0265L9.18088 23.0525C9.78135 23.9863 9.90557 25.1248 9.52418 26.1838ZM11.4914 24.8715C11.4745 23.9016 11.1956 22.9434 10.6671 22.1157L8.08465 17.7755L8.06859 17.7495C7.62996 17.0674 6.91512 16.672 6.15721 16.6137C6.16787 16.5803 6.17824 16.548 6.18902 16.5141C7.28098 13.0783 9.79377 10.3006 13.0951 8.8718H16.957C20.2493 10.3142 22.7481 13.1002 23.8274 16.5407C23.8351 16.5653 23.8425 16.5887 23.8502 16.6129C23.0896 16.6692 22.3714 17.0651 21.9314 17.7495L19.333 22.1157C18.8067 22.9397 18.5282 23.8932 18.509 24.8587C17.4109 25.3623 16.2045 25.6269 14.9869 25.6269C13.7801 25.627 12.582 25.3669 11.4914 24.8715ZM21.5471 28.2431L20.4758 26.1839C20.0945 25.1249 20.2187 23.9863 20.8191 23.0524L23.4156 18.6894C23.6348 18.3613 24.1015 18.2672 24.4625 18.4806C24.6535 18.5936 24.786 18.7705 24.8353 18.9788C24.8806 19.1699 24.8483 19.3644 24.7442 19.5263L22.3211 23.6207L23.833 24.5152L26.2314 20.461C26.5883 19.8972 26.6995 19.2276 26.5446 18.5736C26.4669 18.246 26.3229 17.9382 26.1259 17.6681L26.653 11.5586L26.6528 11.5194C26.6522 11.3288 26.7264 11.1503 26.8617 11.0169C27.0053 10.8751 27.2013 10.7989 27.4109 10.8023C27.8511 10.8095 28.2105 11.1595 28.212 11.5828L28.2414 19.5152L23.7874 26.6323L24.4904 28.2431H21.5471Z" fill="#E8CE3A"/>
<path d="M14.3651 15.4851C14.3651 15.2764 14.5564 15.1025 15.1566 15.1025C15.6872 15.1025 16.2525 15.2503 16.8527 15.5547L17.4702 14.0674C16.9745 13.7891 16.3482 13.6238 15.7046 13.5629V12.6322H14.4782V13.5802C13.0517 13.7803 12.3385 14.6066 12.3385 15.5895C12.3385 17.8596 15.7046 17.2421 15.7046 18.0075C15.7046 18.2163 15.4958 18.3381 14.9131 18.3381C14.2434 18.3381 13.478 18.1206 12.9039 17.7814L12.2429 19.2775C12.7648 19.5993 13.6084 19.8341 14.4782 19.8863V20.8083H15.7046V19.8429C17.0528 19.608 17.7313 18.7904 17.7313 17.851C17.7312 15.6069 14.3651 16.2157 14.3651 15.4851Z" fill="#E8CE3A"/>
</g>
<defs>
<clipPath id="clip0">
<rect width="30" height="30" fill="white"/>
</clipPath>
</defs>
</svg>
