<svg width="35" height="33" viewBox="0 0 35 33" fill="none" xmlns="http://www.w3.org/2000/svg">
<g clip-path="url(#clip0)">
<path d="M0.994629 10.6594L4.83379 12.8834M14.1035 10.5993H20.1307C20.6082 10.5993 20.8767 11.01 20.996 11.4709L22.3487 16.8406C22.4681 17.3015 21.9608 17.7122 21.4834 17.7122H12.7608C12.2833 17.7122 11.7662 17.3115 11.8955 16.8406L13.2481 11.4709C13.3675 11.01 13.636 10.5993 14.1134 10.5993H14.1035ZM8.77241 17.7423H14.7997C15.2771 17.7423 15.5456 18.153 15.665 18.6139L17.0176 23.9836C17.137 24.4445 16.6298 24.8552 16.1523 24.8552H7.41975C6.94234 24.8552 6.42515 24.4545 6.55445 23.9836L7.9071 18.6139C8.02646 18.153 8.295 17.7423 8.77241 17.7423ZM19.892 17.7423H25.9591C26.4365 17.7423 26.7051 18.153 26.8244 18.6139L28.1771 23.9836C28.2964 24.4445 27.7892 24.8552 27.3118 24.8552H18.5792C18.1018 24.8552 17.5846 24.4545 17.7139 23.9836L19.0665 18.6139C19.1859 18.153 19.4544 17.7423 19.9318 17.7423H19.892ZM3.4314 24.8953H9.45868C9.93609 24.8953 10.2046 25.306 10.324 25.7669L11.6766 31.1366C11.796 31.5975 11.2887 32.0082 10.8113 32.0082H2.07874C1.60134 32.0082 1.08414 31.6075 1.21344 31.1366L2.5661 25.7669C2.68545 25.306 2.95399 24.8953 3.4314 24.8953ZM14.5908 24.8953H20.6181C21.0955 24.8953 21.3641 25.306 21.4834 25.7669L22.8758 31.1366C22.9952 31.5975 22.4879 32.0082 22.0105 32.0082H13.2382C12.7707 32.0082 12.2436 31.6075 12.3729 31.1366L13.7255 25.7669C13.8449 25.306 14.1134 24.8953 14.5908 24.8953V24.8953ZM25.7502 24.8953H31.7775C32.2549 24.8953 32.5235 25.306 32.6428 25.7669L33.9955 31.1366C34.1148 31.5975 33.6076 32.0082 33.1302 32.0082H24.3976C23.9202 32.0082 23.403 31.6075 23.5323 31.1366L24.865 25.7568C24.9844 25.296 25.2529 24.8853 25.7303 24.8853L25.7502 24.8953ZM17.1967 1.00183V5.45994V1.00183ZM26.6354 3.43626L24.4175 7.30329L26.6354 3.43626ZM33.5976 10.3088L29.7585 12.5328L33.5976 10.3088ZM7.80764 3.64664L10.0256 7.50365L7.80764 3.64664Z" stroke="#6EF770" stroke-width="2" stroke-linecap="round" stroke-linejoin="round"/>
</g>
<defs>
<clipPath id="clip0">
<rect width="35" height="33" fill="white"/>
</clipPath>
</defs>
</svg>
