<svg width="35" height="35" viewBox="0 0 35 35" fill="none" xmlns="http://www.w3.org/2000/svg">
<g clip-path="url(#clip0)">
<path d="M23.3333 17.4505C24.5066 17.4505 25.6535 17.7988 26.6291 18.4514C27.6046 19.104 28.365 20.0315 28.814 21.1167C29.263 22.2019 29.3804 23.396 29.1515 24.548C28.9226 25.7001 28.3577 26.7583 27.528 27.5889C26.6984 28.4194 25.6414 28.9851 24.4906 29.2142C23.3399 29.4434 22.1471 29.3258 21.0632 28.8763C19.9792 28.4268 19.0527 27.6655 18.4009 26.6889C17.749 25.7122 17.4011 24.564 17.4011 23.3894C17.4011 21.8143 18.0261 20.3037 19.1386 19.19C20.2511 18.0762 21.76 17.4505 23.3333 17.4505V17.4505Z" stroke="#6EF770" stroke-width="2" stroke-miterlimit="22.93"/>
<path d="M5.24012 13.8575H21.8206M34.0113 8.90836V23.0529C34.0014 23.3726 33.8701 23.6766 33.6441 23.9028C33.4182 24.129 33.1146 24.2604 32.7952 24.2704L29.8291 24.399L34.0113 8.90836ZM16.887 24.399L2.20481 24.2704C1.88387 24.2653 1.5775 24.1353 1.35053 23.9081C1.12356 23.6809 0.993804 23.3742 0.988708 23.0529V2.20728C0.988708 1.88439 1.11683 1.57472 1.3449 1.3464C1.57296 1.11808 1.88228 0.989807 2.20481 0.989807H26.1017L16.887 24.399ZM34.0113 8.90836H27.3178C26.9953 8.90836 26.686 8.78009 26.4579 8.55177C26.2298 8.32345 26.1017 8.01378 26.1017 7.69088V0.989807L34.0113 8.90836ZM5.24012 6.28534H21.8206H5.24012ZM5.24012 10.0763H21.8206H5.24012Z" stroke="#6EF770" stroke-width="2" stroke-linecap="round" stroke-linejoin="round"/>
<path d="M23.3333 20.5783C23.8965 20.5783 24.447 20.7455 24.9153 21.0587C25.3836 21.372 25.7485 21.8172 25.964 22.3381C26.1796 22.859 26.2359 23.4321 26.1261 23.9851C26.0162 24.5381 25.745 25.046 25.3468 25.4447C24.9486 25.8434 24.4412 26.1149 23.8888 26.2249C23.3365 26.3349 22.764 26.2784 22.2437 26.0627C21.7233 25.8469 21.2786 25.4815 20.9658 25.0127C20.6529 24.5439 20.4859 23.9928 20.4859 23.429C20.4859 22.6729 20.7859 21.9479 21.3199 21.4133C21.8539 20.8786 22.5781 20.5783 23.3333 20.5783V20.5783Z" stroke="#6EF770" stroke-width="2" stroke-miterlimit="22.93"/>
<path d="M18.1723 26.4282L15.404 31.4663L20.6243 34.0102L23.3927 29.7045L26.1511 34.0102L31.4506 31.4861L28.6525 26.1411" stroke="#6EF770" stroke-width="2" stroke-linecap="round" stroke-linejoin="round"/>
</g>
<defs>
<clipPath id="clip0">
<rect width="35" height="35" fill="white"/>
</clipPath>
</defs>
</svg>
