<svg width="18" height="18" viewBox="0 0 18 18" fill="none" xmlns="http://www.w3.org/2000/svg">
<g clip-path="url(#clip0)">
<path d="M15.9969 4.99845C15.9969 5.13127 15.9441 5.25864 15.8502 5.35255C15.7563 5.44647 15.6289 5.49923 15.4961 5.49923H12.983C12.8502 5.49923 12.7228 5.44647 12.6289 5.35255C12.535 5.25864 12.4822 5.13127 12.4822 4.99845V2.50386C12.4822 2.37105 12.535 2.24368 12.6289 2.14976C12.7228 2.05585 12.8502 2.00309 12.983 2.00309H15.4869C15.6197 2.00309 15.7471 2.05585 15.841 2.14976C15.9349 2.24368 15.9876 2.37105 15.9876 2.50386V5.00773L15.9969 4.99845ZM15.9969 15.4961C15.9969 15.6289 15.9441 15.7563 15.8502 15.8502C15.7563 15.9441 15.6289 15.9969 15.4961 15.9969H2.50386C2.37105 15.9969 2.24368 15.9441 2.14976 15.8502C2.05585 15.7563 2.00309 15.6289 2.00309 15.4961V7.50232H3.70943C3.47743 8.32033 3.43828 9.18099 3.59505 10.0167C3.75182 10.8524 4.10024 11.6403 4.61293 12.3187C5.12562 12.997 5.78862 13.5472 6.54983 13.926C7.31104 14.3048 8.14973 14.502 9 14.502C9.85027 14.502 10.689 14.3048 11.4502 13.926C12.2114 13.5472 12.8744 12.997 13.3871 12.3187C13.8998 11.6403 14.2482 10.8524 14.405 10.0167C14.5617 9.18099 14.5226 8.32033 14.2906 7.50232H15.9969V15.5054V15.4961ZM8.99536 5.49923C9.68683 5.49923 10.3628 5.70427 10.9377 6.08843C11.5126 6.47259 11.9608 7.01861 12.2254 7.65745C12.49 8.29629 12.5592 8.99924 12.4243 9.67743C12.2894 10.3556 11.9564 10.9786 11.4675 11.4675C10.9786 11.9564 10.3556 12.2894 9.67743 12.4243C8.99924 12.5592 8.29629 12.49 7.65745 12.2254C7.01861 11.9608 6.47259 11.5126 6.08843 10.9377C5.70427 10.3628 5.49923 9.68683 5.49923 8.99536C5.49923 8.06813 5.86757 7.17887 6.52322 6.52322C7.17887 5.86757 8.06813 5.49923 8.99536 5.49923ZM15.4869 0H2.50386C1.8398 0 1.20293 0.263799 0.733365 0.733365C0.263799 1.20293 0 1.8398 0 2.50386V15.4869C0 16.1509 0.263799 16.7878 0.733365 17.2574C1.20293 17.7269 1.8398 17.9907 2.50386 17.9907H15.4869C16.1509 17.9907 16.7878 17.7269 17.2574 17.2574C17.7269 16.7878 17.9907 16.1509 17.9907 15.4869V2.50386C17.9907 1.8414 17.7282 1.20594 17.2606 0.736635C16.7931 0.267336 16.1586 0.00245356 15.4961 0L15.4869 0Z" fill="white"/>
</g>
<defs>
<clipPath id="clip0">
<rect width="18" height="18" fill="white"/>
</clipPath>
</defs>
</svg>
