<svg width="27" height="27" viewBox="0 0 27 27" fill="none" xmlns="http://www.w3.org/2000/svg">
<path d="M0.843728 5.00012H26.1562C26.622 5.00012 26.9999 4.55208 26.9999 4.00012C26.9999 3.44809 26.6219 3.00012 26.1562 3.00012H0.843728C0.377959 3.00012 0 3.44817 0 4.00012C0 4.55208 0.378029 5.00012 0.843728 5.00012Z" fill="white"/>
<path d="M26.1562 12.0001H0.843728C0.377959 12.0001 0 12.4482 0 13.0001C0 13.5521 0.378029 14.0001 0.843728 14.0001H26.1562C26.622 14.0001 26.9999 13.5521 26.9999 13.0001C26.9999 12.4482 26.622 12.0001 26.1562 12.0001Z" fill="white"/>
<path d="M26.1562 21.0001H9.28123C8.81546 21.0001 8.4375 21.4482 8.4375 22.0001C8.4375 22.5522 8.81553 23.0001 9.28123 23.0001H26.1562C26.622 23.0001 26.9999 22.5521 26.9999 22.0001C27 21.4481 26.622 21.0001 26.1562 21.0001Z" fill="white"/>
</svg>
