<svg width="22" height="22" viewBox="0 0 22 22" fill="none" xmlns="http://www.w3.org/2000/svg">
<path d="M13.4922 15.2723V17.8627C13.4922 18.4111 13.3326 18.6853 13.0134 18.6853C12.8251 18.6853 12.641 18.5952 12.4609 18.4152V14.7199C12.641 14.5398 12.8251 14.4498 13.0134 14.4498C13.3326 14.4498 13.4922 14.724 13.4922 15.2723ZM17.6417 15.2846V15.8493H16.5368V15.2846C16.5368 14.7281 16.721 14.4498 17.0893 14.4498C17.4576 14.4498 17.6417 14.7281 17.6417 15.2846ZM5.78236 12.6083H7.09597V11.4542H3.26562V12.6083H4.55468V19.5938H5.78236V12.6083ZM9.31807 19.5938H10.4107V13.529H9.31807V18.1696C9.07254 18.5134 8.83928 18.6853 8.61829 18.6853C8.47097 18.6853 8.38504 18.5993 8.36048 18.4275C8.3523 18.4029 8.34821 18.2597 8.34821 17.9978V13.529H7.25557V18.3292C7.25557 18.7303 7.28831 19.029 7.35379 19.2254C7.452 19.5283 7.68935 19.6797 8.06584 19.6797C8.4587 19.6797 8.87611 19.4301 9.31807 18.9308V19.5938ZM14.5848 17.7768V15.3583C14.5848 14.7608 14.548 14.3557 14.4743 14.1429C14.3352 13.6845 14.0446 13.4554 13.6027 13.4554C13.1934 13.4554 12.8129 13.6763 12.4609 14.1183V11.4542H11.3683V19.5938H12.4609V19.0045C12.8292 19.4546 13.2098 19.6797 13.6027 19.6797C14.0446 19.6797 14.3352 19.4546 14.4743 19.0045C14.548 18.7835 14.5848 18.3743 14.5848 17.7768ZM18.7344 17.654V17.4944H17.6172C17.6172 17.9118 17.609 18.1615 17.5926 18.2433C17.5353 18.5379 17.3716 18.6853 17.1016 18.6853C16.7251 18.6853 16.5368 18.4029 16.5368 17.8382V16.7701H18.7344V15.5056C18.7344 14.859 18.6239 14.3843 18.4029 14.0815C18.0837 13.6641 17.6499 13.4554 17.1016 13.4554C16.545 13.4554 16.1071 13.6641 15.7879 14.0815C15.5588 14.3843 15.4442 14.859 15.4442 15.5056V17.6295C15.4442 18.276 15.5629 18.7507 15.8002 19.0536C16.1194 19.471 16.5614 19.6797 17.1261 19.6797C17.7154 19.6797 18.1574 19.4628 18.452 19.029C18.5993 18.808 18.6853 18.5871 18.7098 18.3661C18.7262 18.2924 18.7344 18.0551 18.7344 17.654ZM11.2701 6.44531V3.86719C11.2701 3.30246 11.0941 3.02009 10.7422 3.02009C10.3902 3.02009 10.2143 3.30246 10.2143 3.86719V6.44531C10.2143 7.01823 10.3902 7.30469 10.7422 7.30469C11.0941 7.30469 11.2701 7.01823 11.2701 6.44531ZM20.0971 15.6652C20.0971 17.5804 19.9907 19.0126 19.7779 19.9621C19.6633 20.4449 19.426 20.8501 19.0658 21.1775C18.7057 21.5048 18.2883 21.6931 17.8136 21.7422C16.3077 21.9141 14.0364 22 11 22C7.96353 22 5.69233 21.9141 4.18637 21.7422C3.71167 21.6931 3.29222 21.5048 2.928 21.1775C2.56379 20.8501 2.32849 20.4449 2.22209 19.9621C2.00929 19.0454 1.90289 17.6131 1.90289 15.6652C1.90289 13.75 2.00929 12.3177 2.22209 11.3683C2.33667 10.8854 2.57402 10.4803 2.93414 10.1529C3.29426 9.82552 3.71576 9.63318 4.19865 9.57589C5.69642 9.4122 7.96353 9.33036 11 9.33036C14.0364 9.33036 16.3077 9.4122 17.8136 9.57589C18.2883 9.63318 18.7078 9.82552 19.072 10.1529C19.4362 10.4803 19.6715 10.8854 19.7779 11.3683C19.9907 12.285 20.0971 13.7173 20.0971 15.6652ZM7.84486 0H9.09709L7.6116 4.89844V8.22545H6.38392V4.89844C6.26934 4.29278 6.01971 3.42522 5.63504 2.29576C5.33221 1.45275 5.06621 0.6875 4.83704 0H6.13838L7.01004 3.22879L7.84486 0ZM12.3873 4.08817V6.23661C12.3873 6.89955 12.2727 7.38244 12.0435 7.68527C11.7407 8.10268 11.3069 8.31138 10.7422 8.31138C10.1938 8.31138 9.76413 8.10268 9.45312 7.68527C9.22395 7.37426 9.10937 6.89137 9.10937 6.23661V4.08817C9.10937 3.43341 9.22395 2.95461 9.45312 2.65179C9.76413 2.23438 10.1938 2.02567 10.7422 2.02567C11.3069 2.02567 11.7407 2.23438 12.0435 2.65179C12.2727 2.95461 12.3873 3.43341 12.3873 4.08817ZM16.5 2.09933V8.22545H15.3828V7.55022C14.949 8.05766 14.5275 8.31138 14.1183 8.31138C13.7418 8.31138 13.5004 8.15997 13.394 7.85714C13.3285 7.66071 13.2957 7.35379 13.2957 6.93638V2.09933H14.4129V6.60491C14.4129 6.875 14.417 7.01823 14.4252 7.0346C14.4498 7.21466 14.5357 7.30469 14.683 7.30469C14.904 7.30469 15.1373 7.12872 15.3828 6.77679V2.09933H16.5Z" fill="white"/>
</svg>
