<svg width="16" height="16" viewBox="0 0 16 16" fill="none" xmlns="http://www.w3.org/2000/svg">
<g clip-path="url(#clip0)">
<path d="M11.6654 7.99997C11.4813 7.99997 11.332 7.85072 11.332 7.66663C11.332 7.48253 11.4813 7.33328 11.6654 7.33328C13.5054 7.33109 14.9965 5.84 14.9987 3.99997V1.33331H11.9987C11.8146 1.33331 11.6654 1.18406 11.6654 0.99997C11.6654 0.815876 11.8146 0.666626 11.9987 0.666626H15.3321C15.5162 0.666626 15.6654 0.815876 15.6654 0.99997V3.99997C15.6628 6.20803 13.8735 7.99741 11.6654 7.99997Z" fill="#8A8A8A"/>
<path d="M4.33203 7.99997C2.12397 7.99741 0.334594 6.20803 0.332031 3.99997V0.99997C0.332031 0.815876 0.481281 0.666626 0.665375 0.666626H3.99869C4.18278 0.666626 4.33203 0.815876 4.33203 0.99997C4.33203 1.18406 4.18278 1.33331 3.99869 1.33331H0.998688V3.99997C1.00091 5.84 2.492 7.33109 4.33203 7.33331C4.51613 7.33331 4.66537 7.48256 4.66537 7.66666C4.66534 7.85072 4.51613 7.99997 4.33203 7.99997Z" fill="#8A8A8A"/>
<path d="M10.0834 13.2854L9.90407 13.1014C9.20541 12.3827 9.01341 10.3734 8.99875 9.66003C8.99513 9.47853 8.84694 9.33334 8.66541 9.33337H7.33207C7.15078 9.33334 7.00272 9.47816 6.99872 9.65937C6.98472 10.3727 6.79272 12.3807 6.09338 13.1007L5.91403 13.2847C4.99869 14.2267 4.33203 14.9074 4.33203 15.6667C4.33203 15.8508 4.48128 16.0001 4.66538 16.0001H11.332C11.5161 16.0001 11.6654 15.8508 11.6654 15.6667C11.6654 14.9074 10.9988 14.2267 10.0834 13.2854Z" fill="#8A8A8A"/>
<path d="M12.0013 0H4.00131C3.81722 0 3.66797 0.14925 3.66797 0.333344V5.66669C3.69922 8.04684 5.62112 9.96875 8.00131 10C10.3815 9.96875 12.3034 8.04684 12.3347 5.66666V0.333344C12.3347 0.14925 12.1854 0 12.0013 0Z" fill="#8A8A8A"/>
</g>
<defs>
<clipPath id="clip0">
<rect width="16" height="16" fill="white"/>
</clipPath>
</defs>
</svg>
