<svg width="16" height="16" viewBox="0 0 16 16" fill="none" xmlns="http://www.w3.org/2000/svg">
<g clip-path="url(#clip0)">
<path d="M11.6654 7.99998C11.4813 7.99998 11.332 7.85073 11.332 7.66664C11.332 7.48255 11.4813 7.3333 11.6654 7.3333C13.5054 7.33111 14.9965 5.84002 14.9987 3.99998V1.33333H11.9987C11.8146 1.33333 11.6654 1.18408 11.6654 0.999985C11.6654 0.815891 11.8146 0.666641 11.9987 0.666641H15.3321C15.5162 0.666641 15.6654 0.815891 15.6654 0.999985V3.99998C15.6628 6.20805 13.8735 7.99742 11.6654 7.99998Z" fill="#FFA000"/>
<path d="M4.33203 7.99998C2.12397 7.99742 0.334594 6.20805 0.332031 3.99998V0.999985C0.332031 0.815891 0.481281 0.666641 0.665375 0.666641H3.99869C4.18278 0.666641 4.33203 0.815891 4.33203 0.999985C4.33203 1.18408 4.18278 1.33333 3.99869 1.33333H0.998688V3.99998C1.00091 5.84002 2.492 7.33111 4.33203 7.33333C4.51613 7.33333 4.66537 7.48258 4.66537 7.66667C4.66534 7.85073 4.51613 7.99998 4.33203 7.99998Z" fill="#FFA000"/>
<path d="M10.0834 13.2854L9.90407 13.1014C9.20541 12.3827 9.01341 10.3734 8.99875 9.66005C8.99513 9.47855 8.84694 9.33336 8.66541 9.33339H7.33207C7.15078 9.33336 7.00272 9.47817 6.99872 9.65939C6.98472 10.3727 6.79272 12.3807 6.09338 13.1007L5.91403 13.2847C4.99869 14.2267 4.33203 14.9074 4.33203 15.6667C4.33203 15.8508 4.48128 16.0001 4.66538 16.0001H11.332C11.5161 16.0001 11.6654 15.8508 11.6654 15.6667C11.6654 14.9074 10.9988 14.2267 10.0834 13.2854Z" fill="#FFA000"/>
<path d="M12.0013 0H4.00131C3.81722 0 3.66797 0.14925 3.66797 0.333344V5.66669C3.69922 8.04684 5.62112 9.96875 8.00131 10C10.3815 9.96875 12.3034 8.04684 12.3347 5.66666V0.333344C12.3347 0.14925 12.1854 0 12.0013 0Z" fill="#FFC107"/>
</g>
<defs>
<clipPath id="clip0">
<rect width="16" height="16" fill="white"/>
</clipPath>
</defs>
</svg>
