<svg width="40" height="40" viewBox="0 0 40 40" fill="none" xmlns="http://www.w3.org/2000/svg">
<g clip-path="url(#clip0)">
<path d="M32.3848 27.8648C32.314 27.5718 32.0779 26.9521 31.6765 26.8056C31.275 26.6592 31.2514 27.1099 31.3459 27.4028C31.4529 27.8934 31.7072 28.3437 32.0779 28.6986C32.2904 28.8225 32.5383 28.5408 32.3848 27.8648ZM29.2325 28.5746C29.0721 28.3376 28.8362 28.1559 28.5596 28.0563H28.3943C28.1502 28.0092 27.8966 28.0536 27.6859 28.1803C27.4615 28.3695 27.3207 28.633 27.2922 28.9176C27.2637 29.2021 27.3496 29.4863 27.5324 29.7127C27.6958 29.9471 27.9307 30.1281 28.2054 30.231H28.3353C28.456 30.2568 28.581 30.2591 28.7027 30.2378C28.8244 30.2165 28.9403 30.1721 29.0436 30.107C29.2735 29.9225 29.421 29.6612 29.456 29.3765C29.4911 29.0918 29.4112 28.8051 29.2325 28.5746Z" fill="#F49600"/>
<path d="M31.8781 32.754C32.6996 32.9946 33.4913 33.3195 34.2393 33.7231C36.4999 34.8873 38.3578 36.6526 39.5876 38.8047C40.0953 39.785 39.9536 39.9315 39.8946 39.9315C39.8703 39.9445 39.8432 39.9521 39.8154 39.9539C39.7876 39.9557 39.7597 39.9516 39.7338 39.9419C39.7078 39.9323 39.6844 39.9172 39.6653 39.8979C39.6461 39.8785 39.6317 39.8554 39.6231 39.8301C39.441 39.4234 39.1985 39.0439 38.9029 38.7033C37.0522 36.6382 34.6389 35.102 31.93 34.2648C29.2212 33.4276 26.3224 33.322 23.5546 33.9597C17.5806 35.7625 7.17914 33.7681 2.73994 27.1991C-2.63196 19.3569 0.118924 8.49489 8.91467 3.05264C17.7104 -2.38961 29.2216 -0.327642 34.629 7.55968C36.6338 10.6202 37.5823 14.2038 37.3409 17.8058C37.0994 21.4078 35.6802 24.8468 33.283 27.6386C33.1093 26.6807 32.7051 25.7743 32.1024 24.9907L31.8781 24.7878C31.6379 24.5043 31.3733 24.2405 31.087 23.9991C31.2051 23.7174 31.3114 23.4357 31.4058 23.1315C32.0021 21.0022 32.0997 18.7736 31.6916 16.6042C31.2835 14.4348 30.3797 12.3778 29.0445 10.5794C24.5109 4.1456 16.0575 1.63292 10.4967 5.20475C4.93592 8.77658 3.54277 16.8329 7.68681 23.4921C9.10161 25.5242 11.004 27.2048 13.2361 28.3944C15.4681 29.5839 17.9654 30.248 20.5203 30.3315C20.1517 29.4287 20.0457 28.4477 20.2134 27.4921C20.2134 27.6724 20.6148 28.1907 20.6974 28.3146C21.159 28.9901 21.7474 29.5784 22.433 30.0498C23.6644 30.9182 25.0847 31.5113 26.5888 31.785C28.3741 31.9859 30.1418 32.3098 31.8781 32.754Z" fill="#F49600"/>
<path d="M31.1334 24C30.5635 23.4689 29.8869 23.0533 29.1442 22.7784C28.4016 22.5034 27.6084 22.3747 26.8123 22.4C27.6005 22.1636 28.4378 22.117 29.2494 22.2644C30.0611 22.4119 30.8219 22.7488 31.464 23.2451" fill="#F49600"/>
</g>
<defs>
<clipPath id="clip0">
<rect width="40" height="40" fill="white"/>
</clipPath>
</defs>
</svg>
