<svg width="40" height="40" viewBox="0 0 40 40" fill="none" xmlns="http://www.w3.org/2000/svg">
<path d="M1.18211 18.1716C1.18211 17.2495 1.61053 16.5442 2.47053 16.0558C3.32843 15.5663 4.42106 15.3221 5.74738 15.3221C7.32632 15.3221 8.68106 15.58 9.81053 16.0968V18.4484C8.77369 17.821 7.50527 17.5168 6.00632 17.5358C4.98001 17.5442 4.46738 17.7526 4.46738 18.1579C4.46738 18.3516 4.62317 18.5242 4.93474 18.6768C5.24527 18.8284 5.63474 18.9579 6.10211 19.0642C6.56843 19.1695 7.07264 19.3126 7.61474 19.4926C8.15685 19.6726 8.66106 19.8737 9.12843 20.0947C9.5958 20.3158 9.98422 20.6316 10.2958 21.0421C10.6074 21.4526 10.7621 21.9263 10.7621 22.461C10.7621 24.4347 9.14843 25.421 5.92001 25.421C4.1558 25.421 2.60527 25.1263 1.26738 24.5368V22.1158C2.59369 22.8431 4.06422 23.2073 5.6779 23.2073C6.32317 23.2073 6.78527 23.1589 7.06211 23.0621C7.3379 22.9652 7.47685 22.7979 7.47685 22.5568C7.47685 22.3084 7.26106 22.0916 6.82843 21.9073C6.3958 21.7231 5.87053 21.5495 5.25474 21.3884C4.62972 21.2246 4.01227 21.0332 3.40422 20.8147C2.80753 20.6062 2.26838 20.26 1.83053 19.8042C1.61985 19.5887 1.45404 19.3335 1.34273 19.0534C1.23142 18.7733 1.17683 18.4739 1.18211 18.1726V18.1716ZM25.7737 15.5295V25.2137H22.5737V20.0663L19.98 23.2495H18.1474L15.5526 20.0537V25.2137H12.3526V15.5295H15.38L19.0642 20.0663L22.7484 15.5295H25.7737ZM27.6242 18.1716C27.6242 17.2495 28.0537 16.5442 28.9126 16.0558C29.7716 15.5663 30.8642 15.3221 32.1905 15.3221C33.7695 15.3221 35.1242 15.58 36.2537 16.0968V18.4484C35.2169 17.821 33.9484 17.5168 32.4495 17.5358C31.4232 17.5442 30.9105 17.7526 30.9105 18.1579C30.9105 18.3516 31.0663 18.5242 31.3769 18.6768C31.6884 18.8284 32.0779 18.9579 32.5453 19.0642C33.0116 19.1695 33.5158 19.3126 34.0579 19.4926C34.6 19.6726 35.1042 19.8737 35.5716 20.0947C36.0379 20.3158 36.4274 20.6316 36.739 21.0421C37.0495 21.4526 37.2053 21.9263 37.2053 22.461C37.2053 24.4347 35.5916 25.421 32.3632 25.421C30.599 25.421 29.0474 25.1263 27.7105 24.5368V22.1158C29.0369 22.8431 30.5063 23.2073 32.1211 23.2073C32.7663 23.2073 33.2274 23.1589 33.5042 23.0621C33.7811 22.9652 33.92 22.7979 33.92 22.5568C33.92 22.3084 33.7032 22.0916 33.2705 21.9073C32.839 21.7231 32.3137 21.5495 31.6968 21.3884C31.0718 21.2246 30.4544 21.0332 29.8463 20.8147C29.2496 20.6062 28.7105 20.26 28.2726 19.8042C28.062 19.5887 27.8961 19.3335 27.7848 19.0534C27.6735 18.7733 27.6189 18.4739 27.6242 18.1726V18.1716Z" fill="#F0EFEF"/>
</svg>
