<svg width="120" height="40" viewBox="0 0 120 40" fill="none" xmlns="http://www.w3.org/2000/svg">
<g clip-path="url(#clip0)">
<path d="M117.808 3.04012C116.276 1.01852 113.964 0 110.928 0H102.984L100.032 30.9336H89.632L90.292 23.9198H96.56L97.304 16.034H91.04L91.712 9.05093H98.172L99.028 0H85.912L83.112 29.321H78.312L81.136 0H74.264L71.464 29.321H66.772L69.6 0H62.744L59.788 30.9336H49.304L49.968 23.9198H56.264L57.008 16.0802H50.72L51.388 9.08179H57.92L58.768 0H17.9L15.572 24.5139L10.94 0H3.828L0 40H6.8L9.108 14.8148L13.6 40H37.948L40.908 9.05864H44.716L41.756 40H105.812L107.668 20.4707L110.672 40H117.472L114.36 24.0432L115.072 23.75C116.503 23.2561 117.795 21.7921 118.716 19.6219C119.603 17.2962 120.056 14.4595 120 11.5741C120 7.79321 119.284 5.00772 117.804 3.08642L117.808 3.04012ZM32.04 30.9336H21.64L22.312 23.9198H28.836L29.576 16.0185H23.116L23.74 9.07407H34.14L32.036 30.9336H32.04ZM112.208 17.4614C111.524 18.3796 110.532 18.8349 109.18 18.8349H107.836L108.868 8.10185H109.856C110.98 8.10185 111.8 8.44907 112.368 9.15895C112.685 9.56507 112.941 10.1243 113.111 10.781C113.281 11.4376 113.358 12.1687 113.336 12.9012C113.362 13.7842 113.273 14.6658 113.076 15.4643C112.879 16.2628 112.58 16.9524 112.208 17.4691V17.4614Z" fill="#83BA3B"/>
</g>
<defs>
<clipPath id="clip0">
<rect width="120" height="40" fill="white"/>
</clipPath>
</defs>
</svg>
