<svg width="16" height="16" viewBox="0 0 16 16" fill="none" xmlns="http://www.w3.org/2000/svg">
<path d="M12.6176 7.15627L11.9147 6.35627C11.7205 6.13547 11.3845 6.11413 11.1627 6.3072L9.06667 8.144V0.533333C9.06667 0.238933 8.82774 0 8.53334 0H7.46667C7.17227 0 6.93334 0.238933 6.93334 0.533333V8.144L4.83734 6.3072C4.61654 6.11413 4.28054 6.13547 4.08534 6.35627L3.3824 7.1552C3.1872 7.37707 3.2096 7.7152 3.43147 7.90933L7.64907 11.6011C7.85067 11.7771 8.1504 11.7771 8.352 11.6011L12.5685 7.90933C12.7904 7.7152 12.8128 7.37707 12.6176 7.15627Z" fill="#E8CE3A"/>
<path d="M13.8666 13.8667H2.13331C1.83891 13.8667 1.59998 14.1056 1.59998 14.4V15.4667C1.59998 15.7611 1.83891 16 2.13331 16H13.8666C14.161 16 14.4 15.7611 14.4 15.4667V14.4C14.4 14.1056 14.161 13.8667 13.8666 13.8667Z" fill="#E8CE3A"/>
</svg>
