<svg width="136" height="22" viewBox="0 0 136 22" fill="none" xmlns="http://www.w3.org/2000/svg">
<path fill-rule="evenodd" clip-rule="evenodd" d="M109.517 7.51218C109.471 3.68632 106.664 0.563396 103.095 0.225347C102.957 0.203883 102.814 0.193152 102.676 0.193152H86.9234C85.2669 0.193152 83.9069 1.62047 83.9069 3.35901V18.4907C83.9069 20.2292 85.2669 21.6566 86.9234 21.6566H101.914C101.986 21.6566 102.057 21.6512 102.129 21.6512C102.236 21.6512 102.344 21.6566 102.451 21.6566C106.352 21.6566 109.522 18.3351 109.522 14.2356C109.522 14.1283 109.517 14.021 109.512 13.9136C109.517 13.8439 109.522 13.7741 109.522 13.7044V7.59803C109.522 7.5712 109.517 7.539 109.517 7.51218ZM67.3977 1.59364L57.2999 16.7307C56.3439 18.158 56.6813 20.1434 58.0362 21.1414C59.3962 22.1395 61.2879 21.7907 62.244 20.3634L63.5989 18.3244H76.1763L77.5363 20.3634C78.4873 21.7907 80.379 22.1395 81.739 21.1414C83.099 20.1434 83.4314 18.158 82.4804 16.7307L72.3827 1.59364C71.7845 0.697542 70.8181 0.230713 69.8467 0.24681C68.906 0.257542 67.9754 0.724371 67.3977 1.59364ZM67.3619 12.6902L69.8876 8.90193L72.4184 12.6902H67.3619ZM120.09 1.53998L109.992 16.6771C109.041 18.1044 109.374 20.0897 110.734 21.0878C112.094 22.0858 113.985 21.7371 114.936 20.3097L116.296 18.2707H128.874L130.229 20.3097C131.185 21.7371 133.076 22.0858 134.436 21.0878C135.796 20.0897 136.129 18.1044 135.178 16.6771L125.08 1.53998C124.482 0.643883 123.516 0.177054 122.544 0.193152C121.598 0.203883 120.673 0.670713 120.09 1.53998ZM120.054 12.6366L122.585 8.84827L125.116 12.6366H120.054ZM29.5938 1.53998L19.496 16.6771C18.5451 18.1044 18.8774 20.0897 20.2374 21.0878C21.5974 22.0858 23.4891 21.7371 24.4401 20.3097L25.8001 18.2707H38.3724L39.7324 20.3097C40.6834 21.7371 42.5751 22.0858 43.9351 21.0878C45.2951 20.0897 45.6326 18.1044 44.6765 16.6771L34.5787 1.53998C33.9857 0.643883 33.0193 0.177054 32.0479 0.193152C31.102 0.203883 30.1766 0.670713 29.5938 1.53998ZM29.558 12.6366L32.0888 8.84827L34.6145 12.6366H29.558ZM53.496 20.3634L63.5938 5.22632C64.5448 3.79901 64.2124 1.81364 62.8524 0.815591C61.4924 -0.182458 59.6007 0.166322 58.6497 1.59364L51.001 13.0551L43.3574 1.59364C42.4064 0.166322 40.5147 -0.182458 39.1547 0.815591C37.7947 1.81364 37.4623 3.79901 38.4133 5.22632L48.5111 20.3634C49.1093 21.2595 50.0705 21.7263 51.0419 21.7102C51.9878 21.6995 52.9183 21.2327 53.496 20.3634ZM15.6972 20.3097L25.795 5.17266C26.746 3.74535 26.4136 1.75998 25.0536 0.761932C23.6936 -0.236117 21.8019 0.112664 20.8509 1.53998L13.2022 13.0014L5.55859 1.53998C4.6025 0.112664 2.71077 -0.236117 1.35077 0.761932C-0.00922573 1.75998 -0.341557 3.74535 0.609421 5.17266L10.7072 20.3097C11.3054 21.2058 12.2717 21.6727 13.2431 21.6566C14.189 21.6458 15.1144 21.179 15.6972 20.3097ZM102.538 5.55901H89.0196V16.2907H101.842L102.062 16.2746L102.354 16.2907H102.451C103.53 16.2907 104.409 15.3731 104.409 14.2356C104.409 14.2034 104.404 14.1766 104.404 14.1444L104.394 13.8492L104.409 13.6292V7.63022C104.404 7.61413 104.404 7.59803 104.404 7.5873C104.394 6.54096 103.627 5.66096 102.635 5.56974L102.538 5.55901Z" fill="#FE284A"/>
</svg>
