<svg width="80" height="40" viewBox="0 0 80 40" fill="none" xmlns="http://www.w3.org/2000/svg">
<g clip-path="url(#clip0)">
<path d="M15.1616 5.15789C16.0928 3.75188 16.7584 1.87594 16.56 0C15.1648 0.0789474 13.5008 1.09398 12.5024 2.42105C11.6384 3.59398 10.8384 5.54511 11.04 7.3421C12.6368 7.57895 14.1632 6.56391 15.1616 5.15789ZM16.56 7.81203C14.2976 7.65414 12.3712 9.29699 11.3056 9.29699C10.24 9.29699 8.57925 7.89098 6.78405 7.89098C4.45445 7.96992 2.32645 9.45489 1.12965 11.9549C-1.26395 16.8759 0.464049 24.1429 2.85765 28.1278C3.98725 30.0827 5.38565 32.2669 7.18085 32.1917C8.90885 32.1128 9.57445 30.8647 11.6352 30.8647C13.696 30.8647 14.2944 32.1917 16.1568 32.1128C18.0192 32.0338 19.216 30.1579 20.3456 28.1278C21.6768 25.8609 22.208 23.6729 22.208 23.5977C22.1408 23.5188 18.5504 21.9586 18.5504 17.1128C18.4832 13.0489 21.344 11.0977 21.4752 11.0188C19.9488 8.20301 17.424 7.89098 16.56 7.81203ZM36.1088 2.26692C41.0304 2.26692 44.4224 6.25188 44.4224 11.9549C44.4224 17.7368 40.9632 21.7218 35.9776 21.7218H30.5888V31.8008H26.6656V2.26692H36.1088ZM30.5888 17.891H35.0432C38.4352 17.891 40.3648 15.703 40.3648 12.0301C40.3648 8.2782 38.4352 6.16917 35.0432 6.16917H30.5248V17.8872H30.5888V17.891ZM45.4208 25.782C45.4208 22.0301 47.8816 19.688 52.2688 19.3759L57.3216 19.0639V17.4248C57.3216 15.0038 55.9264 13.5977 53.664 13.5977C51.4688 13.5977 50.1408 14.8496 49.808 16.7218H46.2176C46.416 12.8158 49.2768 9.92481 53.7984 9.92481C58.2528 9.92481 61.1136 12.6579 61.1136 17.0338V31.8759H57.5232V28.3609H57.456C56.3936 30.782 54.064 32.2669 51.6704 32.2669C47.9456 32.2669 45.4208 29.609 45.4208 25.782ZM57.3248 23.8271V22.109L52.8032 22.4211C50.5408 22.5789 49.28 23.7481 49.28 25.6241C49.28 27.5 50.6112 28.7481 52.6048 28.7481C55.2608 28.7519 57.3248 26.6391 57.3248 23.8271ZM64.4384 39.8421V36.2481C64.704 36.3271 65.3696 36.3271 65.6352 36.3271C67.3633 36.3271 68.2944 35.4662 68.8928 33.282C68.8928 33.203 69.2256 31.9549 69.2256 31.9549L62.576 10.391H66.6336L71.2896 27.9699H71.3568L76.0128 10.391H80L73.152 33.1241C71.5552 38.3571 69.76 40 65.9712 40C65.7024 39.9211 64.7712 39.9211 64.4384 39.8421Z" fill="white"/>
</g>
<defs>
<clipPath id="clip0">
<rect width="80" height="40" fill="white"/>
</clipPath>
</defs>
</svg>
