<svg width="80" height="40" viewBox="0 0 80 40" fill="none" xmlns="http://www.w3.org/2000/svg">
<path d="M57.2297 10.0073C59.0193 10.0073 60.4698 7.9379 60.4698 5.38553C60.4698 2.83267 59.0193 0.761269 57.2297 0.761269C55.4423 0.761269 53.9924 2.83267 53.9924 5.38553C53.9924 7.9379 55.4423 10.0073 57.2297 10.0073ZM32.4147 12.5025C32.2688 13.0272 31.2165 17.2699 28.6716 21.6671V2.86497L21.8907 4.77837V38.8579H28.6716V28.3235C30.6355 32.5279 31.6053 38.8579 31.6053 38.8579H39.7275C38.924 34.0911 35.4097 25.3001 35.4097 25.3001C38.5638 19.5922 39.9492 13.5107 40.1695 12.5025H32.4147ZM50.2417 12.1473C44.1681 12.4255 41.085 16.3149 41.085 24.0466V38.8579H47.711V26.7798C47.711 22.1496 48.1357 20.1651 51.9846 19.9763V12.2829C51.3368 12.0867 50.2417 12.1473 50.2417 12.1473ZM10.5184 16.2553C9.68781 16.1773 7.76493 16.0004 7.76493 13.5295C7.76493 10.5479 10.5333 10.5479 11.5717 10.5479C13.3975 10.5479 15.7621 11.3175 17.4507 12.0385C17.4507 12.0385 18.3927 12.5125 19.194 12.9984L19.2688 13.0272V4.86135L19.1665 4.81812C17.1736 3.82291 14.8563 2.86497 10.5601 2.86497C3.15266 2.86497 0.528015 9.02453 0.528015 14.3017C0.528015 17.3434 1.44107 24.5022 9.92487 25.328C10.644 25.3911 12.5523 25.5476 12.5523 28.1014C12.5523 30.2096 10.99 31.4527 8.36192 31.4527C5.48177 31.4527 2.68795 30.4044 0.990983 29.4102V37.8205C3.53139 38.771 6.39517 39.246 9.75152 39.246C16.9943 39.246 20.2383 33.4178 20.2383 27.6418C20.2383 21.0927 16.6083 16.8381 10.5184 16.2553ZM53.9451 38.8579H60.5175V12.5324H53.9451V38.8579ZM72.893 4.54336V38.8579H79.4664V2.86497L72.893 4.54336ZM63.3016 4.54336L69.8687 2.86497V38.8579H63.3016V4.54336Z" fill="#811963"/>
</svg>
