<svg width="45" height="40" viewBox="0 0 45 40" fill="none" xmlns="http://www.w3.org/2000/svg">
<g clip-path="url(#clip0)">
<path d="M8.18887 39.9114V37.2536C8.18887 36.2348 7.6481 35.5703 6.72106 35.5703C6.25754 35.5703 5.7554 35.7475 5.40776 36.3234C5.13737 35.8361 4.7511 35.5703 4.1717 35.5703C3.78544 35.5703 3.39917 35.7032 3.09016 36.1905V35.6589H2.31763V39.9114H3.12879V37.5637C3.12879 36.8106 3.47643 36.4563 4.0172 36.4563C4.55797 36.4563 4.82836 36.8549 4.82836 37.5637V39.9114H5.63952V37.5637C5.63952 36.8106 6.02578 36.4563 6.52793 36.4563C7.0687 36.4563 7.33909 36.8549 7.33909 37.5637V39.9114H8.18887ZM20.2017 35.6589H18.8884V34.3743H18.0773V35.6589H17.3434V36.5006H18.0773V38.4496C18.0773 39.4242 18.4249 40 19.352 40C19.6996 40 20.0859 39.8671 20.3563 39.6899L20.1245 38.8926C19.8927 39.0698 19.6223 39.1141 19.4292 39.1141C19.0429 39.1141 18.8884 38.8483 18.8884 38.4053V36.5006H20.2017V35.6589ZM27.0387 35.5703C26.5751 35.5703 26.2661 35.8361 26.073 36.1905V35.6589H25.2618V39.9114H26.073V37.5194C26.073 36.8106 26.3434 36.412 26.8455 36.412C27 36.412 27.1932 36.4563 27.3477 36.5006L27.5794 35.6146C27.4249 35.6146 27.1932 35.5703 27.0387 35.5703ZM16.6867 36.0133C16.3005 35.7032 15.7597 35.5703 15.1803 35.5703C14.2532 35.5703 13.6352 36.1019 13.6352 36.9435C13.6352 37.6523 14.0987 38.051 14.9099 38.1838L15.2962 38.2281C15.7211 38.3167 15.9528 38.4496 15.9528 38.6711C15.9528 38.9812 15.6438 39.2027 15.103 39.2027C14.5623 39.2027 14.1374 38.9812 13.867 38.7597L13.4807 39.4684C13.9056 39.8228 14.485 40 15.0644 40C16.146 40 16.764 39.4242 16.764 38.6268C16.764 37.8738 16.2618 37.4751 15.4893 37.3422L15.103 37.2979C14.7554 37.2536 14.485 37.165 14.485 36.8992C14.485 36.5892 14.7554 36.412 15.1803 36.412C15.6438 36.412 16.1073 36.6335 16.3391 36.7663L16.6867 36.0133ZM38.2017 35.5703C37.7382 35.5703 37.4292 35.8361 37.2361 36.1905V35.6589H36.4249V39.9114H37.2361V37.5194C37.2361 36.8106 37.5065 36.412 38.0086 36.412C38.1631 36.412 38.3563 36.4563 38.5108 36.5006L38.7425 35.6146C38.588 35.6146 38.3563 35.5703 38.2017 35.5703ZM27.8498 37.7852C27.8498 39.0698 28.6223 40 29.8198 40C30.3605 40 30.7468 39.8671 31.1331 39.5127L30.7468 38.7597C30.4378 39.0255 30.1288 39.1584 29.7811 39.1584C29.1245 39.1584 28.661 38.6268 28.661 37.7852C28.661 36.9878 29.1245 36.4563 29.7811 36.412C30.1288 36.412 30.4378 36.5449 30.7468 36.8106L31.1331 36.0576C30.7468 35.7032 30.3605 35.5703 29.8198 35.5703C28.6223 35.5703 27.8498 36.5006 27.8498 37.7852ZM35.382 37.7852V35.6589H34.5708V36.1905C34.3005 35.7918 33.9142 35.5703 33.412 35.5703C32.3691 35.5703 31.558 36.5006 31.558 37.7852C31.558 39.0698 32.3691 40 33.412 40C33.9528 40 34.3391 39.7785 34.5708 39.3799V39.9114H35.382V37.7852ZM32.3691 37.7852C32.3691 37.0321 32.794 36.412 33.4893 36.412C34.146 36.412 34.6095 36.9878 34.6095 37.7852C34.6095 38.5382 34.146 39.1584 33.4893 39.1584C32.794 39.1584 32.3691 38.5382 32.3691 37.7852ZM22.6738 35.5703C21.5923 35.5703 20.8198 36.4563 20.8198 37.7852C20.8198 39.1141 21.5923 40 22.7125 40C23.2532 40 23.794 39.8228 24.2189 39.4242L23.8326 38.7597C23.5236 39.0255 23.1374 39.2027 22.7511 39.2027C22.249 39.2027 21.7468 38.9369 21.6309 38.1838H24.3734V37.8295C24.4507 36.4563 23.7168 35.5703 22.6738 35.5703ZM22.6738 36.412C23.176 36.412 23.5236 36.7663 23.6009 37.4308H21.6696C21.7854 36.8106 22.0944 36.412 22.6738 36.412ZM42.8369 37.7852V33.9756H42.0258V36.1905C41.7554 35.7918 41.3691 35.5703 40.867 35.5703C39.8241 35.5703 39.0129 36.5006 39.0129 37.7852C39.0129 39.0698 39.8241 40 40.867 40C41.4078 40 41.794 39.7785 42.0258 39.3799V39.9114H42.8369V37.7852ZM39.8241 37.7852C39.8241 37.0321 40.249 36.412 40.9442 36.412C41.6009 36.412 42.0644 36.9878 42.0644 37.7852C42.0644 38.5382 41.6009 39.1584 40.9442 39.1584C40.249 39.1584 39.8241 38.5382 39.8241 37.7852ZM12.7082 37.7852V35.6589H11.897V36.1905C11.6266 35.7918 11.2404 35.5703 10.7382 35.5703C9.69531 35.5703 8.88415 36.5006 8.88415 37.7852C8.88415 39.0698 9.69531 40 10.7382 40C11.279 40 11.6653 39.7785 11.897 39.3799V39.9114H12.7082V37.7852ZM9.73394 37.7852C9.73394 37.0321 10.1588 36.412 10.8541 36.412C11.5108 36.412 11.9743 36.9878 11.9743 37.7852C11.9743 38.5382 11.5108 39.1584 10.8541 39.1584C10.1588 39.1584 9.73394 38.5382 9.73394 37.7852Z" fill="white"/>
<path d="M16.4163 3.41089H28.5837V28.4829H16.4163V3.41089Z" fill="#FF5F00"/>
<path d="M17.1888 15.9468C17.1888 10.8527 19.2747 6.33444 22.4807 3.41085C20.1245 1.28461 17.1502 0 13.9056 0C6.21888 0 0 7.13178 0 15.9468C0 24.7619 6.21888 31.8937 13.9056 31.8937C17.1502 31.8937 20.1245 30.6091 22.4807 28.4828C19.2747 25.5592 17.1888 21.041 17.1888 15.9468Z" fill="#EB001B"/>
<path d="M45 15.9468C45 24.7619 38.7811 31.8937 31.0944 31.8937C27.8498 31.8937 24.8755 30.6091 22.5193 28.4828C25.7253 25.5592 27.8111 21.041 27.8111 15.9468C27.8111 10.8527 25.7253 6.33444 22.4807 3.41085C24.8755 1.28461 27.8498 0 31.0944 0C38.7811 0 45 7.13178 45 15.9468Z" fill="#F79E1B"/>
</g>
<defs>
<clipPath id="clip0">
<rect width="45" height="40" fill="white"/>
</clipPath>
</defs>
</svg>
